<?xml version="1.0" standalone="no"?>
<!DOCTYPE svg PUBLIC "-//W3C//DTD SVG 20010904//EN"
 "http://www.w3.org/TR/2001/REC-SVG-20010904/DTD/svg10.dtd">
<svg version="1.0" xmlns="http://www.w3.org/2000/svg"
 width="228.000000pt" height="228.000000pt" viewBox="0 0 228.000000 228.000000"
 preserveAspectRatio="xMidYMid meet">
<metadata>
Created by potrace 1.11, written by Peter Selinger 2001-2013
</metadata>
<g transform="translate(0.000000,228.000000) scale(0.100000,-0.100000)"
fill="#000000" stroke="none">
<path d="M922 2165 c-107 -28 -269 -102 -362 -168 -68 -49 -91 -55 -44 -12
l29 26 -38 -22 -39 -22 -40 46 c-30 36 -46 47 -69 47 -38 0 -47 -34 -25 -102
9 -28 15 -53 12 -55 -2 -2 -21 0 -43 5 -47 11 -83 -1 -83 -26 0 -25 14 -35 68
-51 42 -12 43 -13 28 -34 -26 -35 -46 -88 -39 -100 3 -5 2 -7 -4 -4 -12 8 -74
-122 -102 -216 -31 -101 -44 -264 -32 -383 20 -193 76 -341 193 -516 52 -77
91 -120 259 -285 125 -123 149 -141 170 -136 13 3 29 9 34 13 25 19 81 20 186
4 91 -13 148 -15 281 -9 126 5 176 3 203 -6 40 -15 43 -13 247 147 263 207
403 428 448 706 18 110 8 321 -20 423 -24 91 -91 237 -142 313 -30 45 -34 59
-31 96 6 55 -9 84 -51 101 -31 13 -34 19 -38 66 -4 35 -12 57 -24 66 -22 16
-58 18 -48 1 5 -7 2 -9 -8 -5 -10 3 -20 -3 -28 -19 -8 -13 -17 -24 -22 -24
-12 0 -10 14 4 28 9 9 9 12 1 12 -7 0 -15 -4 -18 -10 -3 -5 -17 -10 -31 -10
-16 0 -23 -4 -18 -11 3 -6 -8 -3 -26 6 -17 9 -29 19 -26 22 3 3 12 0 21 -7 9
-7 18 -10 21 -7 3 3 -9 13 -26 22 -18 9 -29 12 -26 6 10 -15 9 -15 -85 26
-142 61 -206 75 -374 78 -132 3 -161 1 -243 -20z m383 -6 c102 -20 125 -29
125 -49 0 -13 -5 -18 -15 -14 -9 4 -15 0 -15 -10 0 -18 -8 -20 -30 -6 -13 8
-12 10 3 10 21 0 22 8 0 32 -19 21 -69 24 -76 4 -3 -7 0 -19 6 -26 10 -10 8
-12 -6 -6 -10 3 -30 6 -43 6 -15 0 -23 4 -19 10 4 6 11 8 16 5 5 -4 9 3 9 15
0 12 -4 18 -10 15 -5 -3 -10 -1 -10 4 0 6 -7 11 -16 11 -11 0 -14 -6 -10 -22
3 -13 3 -17 0 -10 -3 6 -13 12 -22 12 -12 0 -13 -3 -4 -12 20 -20 14 -28 -23
-28 -26 0 -33 -3 -29 -15 5 -11 -1 -15 -25 -15 -17 0 -31 5 -31 10 0 6 8 10
18 10 11 0 27 9 37 20 15 16 15 22 5 35 -7 8 -17 15 -22 15 -6 0 -5 -7 2 -16
11 -12 10 -18 -5 -32 -18 -16 -18 -16 -6 0 11 15 10 20 -3 33 -9 9 -20 13 -26
10 -14 -9 -12 -45 3 -46 13 -1 -159 -37 -182 -38 -11 -1 -11 2 -1 14 6 8 10
20 7 27 -3 8 -6 6 -6 -5 -1 -10 -6 -15 -11 -12 -6 4 -8 11 -5 16 4 5 1 9 -5 9
-6 0 -9 -12 -8 -26 2 -15 -3 -30 -12 -35 -55 -31 -180 -87 -181 -81 -1 4 -1
16 0 27 0 11 -2 14 -5 7 -5 -10 -9 -10 -20 -1 -10 8 -14 8 -14 1 0 -6 -6 -9
-14 -6 -7 3 -16 -2 -19 -10 -4 -10 -1 -13 9 -9 7 3 14 0 14 -6 0 -6 4 -11 10
-11 5 0 6 7 3 17 -4 11 -3 14 5 9 7 -4 12 -16 12 -27 0 -20 15 -26 25 -9 8 12
25 13 25 2 0 -5 -11 -14 -25 -20 -32 -15 -38 -15 -29 -1 7 12 6 12 -38 -10
-25 -13 -30 -12 -49 5 -12 10 -23 14 -27 9 -4 -6 -16 -11 -27 -12 -27 -2 27
43 119 99 123 75 341 143 438 136 20 -1 40 1 44 4 8 8 119 0 189 -13z m162
-45 c-3 -3 -12 -4 -19 -1 -8 3 -5 6 6 6 11 1 17 -2 13 -5z m45 -44 c-2 -17 -7
-30 -11 -30 -12 0 -27 15 -34 32 -4 12 -2 15 9 11 8 -3 14 1 14 11 0 9 6 13
13 10 9 -3 12 -16 9 -34z m-447 10 c4 -6 -7 -10 -27 -9 -31 1 -32 1 -8 9 14 4
26 8 27 9 1 1 5 -3 8 -9z m145 0 c0 -5 -11 -10 -25 -10 -14 0 -25 5 -25 10 0
6 11 10 25 10 14 0 25 -4 25 -10z m66 0 c9 0 13 -4 10 -9 -7 -11 -56 -2 -56
11 0 6 7 7 16 4 9 -3 22 -6 30 -6z m-296 -21 c-14 -4 -32 -7 -39 -8 -21 -1 -1
16 24 21 30 7 43 -5 15 -13z m356 11 c15 -6 24 -13 22 -16 -8 -8 -58 7 -58 17
0 11 3 11 36 -1z m-416 -20 c0 -5 -6 -10 -12 -10 -7 0 -24 -3 -38 -5 -22 -5
-21 -3 5 9 36 18 45 19 45 6z m506 -11 c3 -5 1 -9 -5 -9 -17 0 -41 12 -41 20
0 10 38 1 46 -11z m189 11 c3 -6 -1 -7 -9 -4 -18 7 -21 14 -7 14 6 0 13 -4 16
-10z m-1210 -36 c23 -36 16 -37 -25 -3 -30 25 -31 29 -13 29 11 0 28 -12 38
-26z m421 1 c-23 -17 -36 -19 -36 -6 0 11 18 19 40 20 11 0 10 -3 -4 -14z
m664 5 c13 -9 13 -10 0 -9 -8 0 -24 4 -35 9 l-20 9 20 0 c11 0 27 -4 35 -9z
m-710 -20 c0 -5 -13 -16 -30 -25 -38 -19 -40 -1 -2 19 33 18 32 18 32 6z
m-400 -92 c-8 -7 -12 -9 -8 -4 4 5 2 18 -4 30 -10 20 -10 20 8 4 16 -15 16
-20 4 -30z m1460 32 c12 -8 9 -10 -12 -10 -14 0 -35 -3 -45 -7 -16 -6 -16 -5
-4 10 15 19 38 22 61 7z m50 -6 c0 -2 -7 -4 -15 -4 -8 0 -15 4 -15 10 0 5 7 7
15 4 8 -4 15 -8 15 -10z m-380 -21 c-368 -115 -381 -118 -565 -117 -128 1
-174 5 -230 21 -46 13 -71 26 -73 37 -4 21 9 21 145 -4 138 -26 242 -18 478
36 92 21 171 33 188 30 15 -3 26 -2 23 2 -2 4 14 8 37 8 l42 1 -45 -14z
m-1207 -30 c-7 -2 -19 -2 -25 0 -7 3 -2 5 12 5 14 0 19 -2 13 -5z m1598 -40
c13 -16 12 -17 -3 -4 -10 7 -18 15 -18 17 0 8 8 3 21 -13z m-16 -13 c3 -5 1
-10 -4 -10 -6 0 -11 5 -11 10 0 6 2 10 4 10 3 0 8 -4 11 -10z m-1445 -144 c0
-6 -4 -49 -10 -96 -17 -157 -20 -214 -20 -385 1 -240 14 -406 33 -419 8 -6
120 -74 250 -151 129 -77 234 -143 231 -146 -2 -4 4 -6 14 -5 9 0 16 -4 15
-11 -2 -8 4 -10 14 -6 10 4 14 2 10 -5 -4 -6 104 55 240 135 137 81 256 147
265 148 10 1 21 5 25 10 5 4 2 5 -4 1 -7 -4 -13 -5 -13 -3 0 6 68 47 77 47 4
0 -2 -7 -13 -16 -18 -15 -18 -15 0 -6 24 12 23 0 41 297 15 251 48 551 65 591
6 16 15 20 34 17 31 -6 31 -2 6 -136 -19 -103 -26 -185 -51 -587 -6 -102 -12
-186 -13 -187 -4 -5 -440 -261 -545 -321 -96 -55 -116 -63 -135 -53 -11 6
-142 84 -291 173 -251 152 -271 166 -282 200 -38 117 -43 703 -7 926 l6 41 29
-21 c16 -12 29 -27 29 -32z m1570 4 c6 -11 8 -20 6 -20 -3 0 -10 9 -16 20 -6
11 -8 20 -6 20 3 0 10 -9 16 -20z m-55 -20 c-3 -5 -2 -10 3 -10 18 0 21 -28 5
-42 -14 -11 -15 -10 -9 9 4 12 2 24 -4 28 -13 8 -13 25 1 25 5 0 7 -4 4 -10z
m-1712 -57 c-15 -32 -37 -92 -49 -133 -13 -41 -23 -67 -23 -57 -2 38 78 247
94 247 2 0 -8 -26 -22 -57z m47 18 c0 -11 -39 -59 -40 -49 0 14 23 58 32 58 4
0 8 -4 8 -9z m1790 -96 c0 -5 -5 -3 -10 5 -5 8 -10 20 -10 25 0 6 5 3 10 -5 5
-8 10 -19 10 -25z m-1412 -37 c10 -10 15 -10 22 2 8 12 13 13 30 3 11 -7 26
-13 34 -13 8 0 19 -6 23 -14 4 -8 19 -16 33 -18 19 -2 25 -9 24 -25 0 -16 5
-23 18 -23 10 0 18 -4 18 -10 0 -5 -9 -10 -20 -10 -14 0 -20 -6 -18 -17 2 -12
-2 -17 -12 -14 -8 2 -26 5 -40 8 l-25 3 25 -12 c14 -7 28 -16 31 -21 20 -28
116 45 105 80 -4 13 1 26 14 38 19 17 20 17 20 1 0 -13 5 -16 20 -11 11 4 20
2 20 -4 0 -6 -5 -11 -11 -11 -8 0 -8 -5 1 -15 10 -12 10 -15 -3 -15 -9 0 -30
-20 -47 -45 -17 -25 -35 -45 -41 -45 -7 0 -7 -6 0 -17 6 -12 6 -24 -1 -37 -9
-16 -6 -24 18 -43 31 -24 54 -30 54 -13 0 22 31 21 50 -1 l20 -24 6 23 c7 25
32 30 40 7 9 -22 27 -18 57 13 l27 28 -28 34 c-16 19 -34 49 -41 67 -8 21 -24
36 -44 43 -31 12 -32 12 -9 22 23 11 30 28 11 28 -5 0 -8 4 -5 9 3 5 16 7 28
3 14 -3 19 -2 14 6 -11 18 10 14 29 -4 11 -11 14 -25 10 -43 -4 -21 0 -34 21
-54 32 -32 48 -33 100 -7 l39 21 -44 -7 c-38 -5 -43 -4 -38 10 5 12 2 16 -10
14 -9 -2 -18 3 -20 10 -3 7 4 12 15 12 12 0 19 6 18 16 0 9 6 20 14 24 8 4 25
12 37 18 13 7 29 12 37 12 8 0 16 7 20 15 3 8 10 15 16 15 5 0 10 -7 10 -15 0
-19 9 -19 32 2 17 15 18 14 18 -15 0 -17 -5 -34 -10 -37 -6 -4 -7 -13 -2 -22
5 -9 5 -35 0 -62 -28 -135 -29 -122 4 -163 16 -21 33 -50 38 -66 7 -27 7 -26
15 12 5 25 3 58 -5 90 -17 67 -16 132 3 151 14 13 16 12 21 -13 2 -15 8 -66
11 -114 6 -81 5 -90 -20 -140 -28 -56 -28 -110 0 -126 24 -13 0 -77 -41 -108
-19 -15 -37 -24 -41 -20 -3 3 -13 0 -21 -7 -13 -10 -15 -9 -9 7 6 16 5 17 -8
6 -8 -7 -15 -8 -15 -3 0 16 23 33 44 33 19 0 66 36 66 51 0 4 -12 10 -27 14
-28 6 -73 61 -73 89 0 20 -26 27 -40 11 -6 -7 -8 -24 -5 -38 4 -14 2 -28 -4
-31 -6 -4 -11 -16 -11 -27 0 -10 -6 -19 -14 -19 -8 0 -16 -5 -18 -12 -2 -6
-22 -12 -44 -13 -21 0 -45 -4 -52 -9 -10 -6 -11 -1 -6 18 5 23 4 25 -12 19
-18 -6 -18 -6 -1 14 9 11 17 25 17 33 0 10 3 10 15 0 8 -7 15 -19 15 -26 0
-17 24 -18 51 -4 25 14 24 38 -2 66 -31 33 -19 65 35 99 25 16 43 32 40 37 -3
5 -9 6 -14 3 -4 -3 -19 -1 -32 4 -12 4 -32 5 -43 0 -20 -7 -55 -21 -65 -24 -3
-1 -12 -4 -20 -8 -8 -3 -27 -7 -43 -10 -23 -4 -27 -1 -22 14 5 15 1 19 -20 19
-22 0 -26 -4 -22 -19 4 -16 -1 -18 -32 -16 -20 2 -49 8 -66 15 -16 7 -34 12
-39 11 -4 -1 -14 3 -20 8 -9 8 -25 6 -54 -6 -42 -16 -56 -33 -27 -33 8 0 30
-8 50 -17 48 -23 56 -56 21 -92 -24 -25 -25 -28 -10 -49 20 -29 52 -28 66 3 6
14 14 25 18 25 4 0 12 -11 18 -25 10 -21 9 -25 -4 -25 -11 0 -13 -6 -9 -20 5
-15 3 -18 -9 -14 -8 3 -23 1 -33 -4 -23 -12 -93 16 -93 37 0 8 -8 23 -17 34
-17 18 -17 19 0 29 14 8 16 13 6 24 -15 19 -49 18 -49 -1 0 -26 -30 -63 -55
-69 -33 -8 -49 -40 -35 -67 10 -17 17 -20 51 -14 38 7 39 6 39 -22 0 -21 -3
-24 -10 -13 -8 12 -10 12 -16 -3 -3 -9 -11 -14 -16 -11 -6 4 -13 1 -17 -5 -5
-8 -21 1 -49 29 -43 41 -57 90 -29 107 18 11 47 59 47 77 0 9 -11 23 -25 32
-50 33 -86 130 -55 149 6 3 10 33 10 65 0 32 5 62 10 65 6 3 10 22 10 41 0 19
5 34 10 34 6 0 10 -9 10 -19 0 -11 5 -21 12 -23 19 -7 13 -93 -12 -167 -24
-69 -24 -71 -5 -88 18 -17 19 -16 52 46 34 65 41 108 23 141 -5 10 -11 43 -13
74 -2 30 -6 59 -10 62 -10 10 -9 54 1 54 4 0 14 -6 20 -12z m-501 -120 c-3 -8
-6 -5 -6 6 -1 11 2 17 5 13 3 -3 4 -12 1 -19z m-10 -70 c-3 -7 -5 -2 -5 12 0
14 2 19 5 13 2 -7 2 -19 0 -25z"/>
<path d="M963 2120 c0 -23 3 -27 13 -19 7 6 23 7 36 4 l23 -7 -24 26 c-32 34
-48 33 -48 -4z"/>
<path d="M840 2111 c0 -8 -6 -11 -15 -7 -8 3 -15 1 -15 -4 0 -12 40 -34 48
-26 3 3 -1 6 -9 6 -12 0 -11 2 1 10 12 7 12 12 2 22 -9 9 -12 9 -12 -1z"/>
<path d="M740 2071 c0 -6 -7 -11 -16 -11 -13 0 -14 -3 -4 -15 7 -8 16 -12 21
-9 5 3 9 0 9 -5 0 -6 5 -11 10 -11 15 0 12 36 -5 50 -10 9 -15 9 -15 1z"/>
<path d="M1490 2142 c8 -5 26 -13 40 -16 17 -5 20 -4 10 2 -8 5 -26 13 -40 16
-17 5 -20 4 -10 -2z"/>
</g>
</svg>
